<svg width="24" height="24" viewBox="0 0 24 24" fill="none" xmlns="http://www.w3.org/2000/svg">
<path d="M4.38276 5.75C4.72225 5.75 5.01435 6.03162 5.01435 6.39999C5.01435 6.76836 4.72225 7.04998 4.38277 7.04998C4.04328 7.04998 3.75118 6.76836 3.75118 6.39999C3.75118 6.03162 4.04328 5.75 4.38276 5.75ZM4.38159 11.35C4.72107 11.35 5.01317 11.6317 5.01317 12C5.01317 12.3684 4.72107 12.65 4.38159 12.65C4.0421 12.65 3.75 12.3684 3.75 12C3.75 11.6317 4.0421 11.35 4.38159 11.35ZM4.38158 16.95C4.72107 16.95 5.01317 17.2316 5.01317 17.6C5.01317 17.9684 4.72107 18.25 4.38158 18.25C4.0421 18.25 3.75 17.9684 3.75 17.6C3.75 17.2316 4.0421 16.95 4.38158 16.95Z" fill="#000C14" stroke="#000C14" stroke-width="1.5"/>
<path fill-rule="evenodd" clip-rule="evenodd" d="M20.9976 12C20.9976 11.6134 20.6883 11.3 20.3068 11.3H7.41198C7.03047 11.3 6.72119 11.6134 6.72119 12C6.72119 12.3866 7.03047 12.7 7.41198 12.7H20.3068C20.6883 12.7 20.9976 12.3866 20.9976 12Z" fill="#000C14"/>
<path fill-rule="evenodd" clip-rule="evenodd" d="M20.9976 6.40007C20.9976 6.01347 20.6883 5.70007 20.3068 5.70007H7.41198C7.03047 5.70007 6.72119 6.01347 6.72119 6.40007C6.72119 6.78667 7.03047 7.10007 7.41198 7.10007H20.3068C20.6883 7.10007 20.9976 6.78667 20.9976 6.40007Z" fill="#000C14"/>
<path fill-rule="evenodd" clip-rule="evenodd" d="M21 17.6C21 17.2134 20.6907 16.9 20.3092 16.9H7.41441C7.0329 16.9 6.72362 17.2134 6.72362 17.6C6.72362 17.9866 7.0329 18.3 7.41441 18.3H20.3092C20.6907 18.3 21 17.9866 21 17.6Z" fill="#000C14"/>
</svg>
